HIERARCHY
ROOT Hips
{
	OFFSET -3.958830 18.904000 13.208200
	CHANNELS 6 Xposition Yposition Zposition Zrotation Yrotation Xrotation 
	JOINT LHipJoint
	{
		OFFSET 0.000000 0.000000 0.000000
		CHANNELS 3 Zrotation Yrotation Xrotation
		JOINT LeftUpLeg
		{
			OFFSET 1.800000 -1.400000 0.085000
			CHANNELS 3 Zrotation Yrotation Xrotation
			JOINT LeftLeg
			{
				OFFSET 2.215000 -6.000000 0.000000
				CHANNELS 3 Zrotation Yrotation Xrotation
				JOINT LeftFoot
				{
					OFFSET 2.500000 -6.900000 0.000000
					CHANNELS 3 Zrotation Yrotation Xrotation
					JOINT LeftToeBase
					{
						OFFSET 0.200000 -0.500000 1.950000
						CHANNELS 3 Zrotation Yrotation Xrotation
						End Site
						{
							OFFSET 0.000000 0.000000 0.000000
						}
					}
				}
			}
		}
	}
	JOINT RHipJoint
	{
		OFFSET 0.000000 0.000000 0.000000
		CHANNELS 3 Zrotation Yrotation Xrotation
		JOINT RightUpLeg
		{
			OFFSET -1.800000 -1.400000 0.085000
			CHANNELS 3 Zrotation Yrotation Xrotation
			JOINT RightLeg
			{
				OFFSET -2.215000 -6.000000 0.000000
				CHANNELS 3 Zrotation Yrotation Xrotation
				JOINT RightFoot
				{
					OFFSET -2.500000 -6.900000 0.000000
					CHANNELS 3 Zrotation Yrotation Xrotation
					JOINT RightToeBase
					{
						OFFSET -0.200000 -0.500000 1.950000
						CHANNELS 3 Zrotation Yrotation Xrotation
						End Site
						{
							OFFSET 0.000000 0.000000 0.000000
						}
					}
				}
			}
		}
	}
	JOINT LowerBack
	{
		OFFSET 0.000000 0.000000 0.000000
		CHANNELS 3 Zrotation Yrotation Xrotation
		JOINT Spine
		{
			OFFSET -0.087000 1.940000 -0.288900
			CHANNELS 3 Zrotation Yrotation Xrotation
			JOINT Spine1
			{
				OFFSET 0.000000 1.950000 0.060000
				CHANNELS 3 Zrotation Yrotation Xrotation
				JOINT Neck
				{
					OFFSET 0.000000 0.000000 0.000000
					CHANNELS 3 Zrotation Yrotation Xrotation
					JOINT Neck1
					{
						OFFSET 0.000000 1.600000 0.340000
						CHANNELS 3 Zrotation Yrotation Xrotation
						JOINT Head
						{
							OFFSET 0.000000 1.667000 -0.240000
							CHANNELS 3 Zrotation Yrotation Xrotation
							End Site
							{
								OFFSET 0.000000 0.000000 0.000000
							}
						}
					}
				}
				JOINT LeftShoulder
				{
					OFFSET 0.000000 0.000000 0.000000
					CHANNELS 3 Zrotation Yrotation Xrotation
					JOINT LeftArm
					{
						OFFSET 2.700000 1.550000 -0.730000
						CHANNELS 3 Zrotation Yrotation Xrotation
						JOINT LeftForeArm
						{
							OFFSET 5.450000 0.000000 0.000000
							CHANNELS 3 Zrotation Yrotation Xrotation
							JOINT LeftHand
							{
								OFFSET 3.450000 0.000000 0.000000
								CHANNELS 3 Zrotation Yrotation Xrotation
								JOINT LeftHandIndex1
								{
									OFFSET 0.750000 0.000000 0.000000
									CHANNELS 3 Zrotation Yrotation Xrotation
									End Site
									{
										OFFSET 0.000000 0.000000 0.000000
									}
								}
							}
						}
					}
				}
				JOINT RightShoulder
				{
					OFFSET 0.000000 0.000000 0.000000
					CHANNELS 3 Zrotation Yrotation Xrotation
					JOINT RightArm
					{
						OFFSET -2.700000 1.550000 -0.730000
						CHANNELS 3 Zrotation Yrotation Xrotation
						JOINT RightForeArm
						{
							OFFSET -5.450000 0.000000 0.000000
							CHANNELS 3 Zrotation Yrotation Xrotation
							JOINT RightHand
							{
								OFFSET -3.450000 0.000000 0.000000
								CHANNELS 3 Zrotation Yrotation Xrotation
								JOINT RightHandIndex1
								{
									OFFSET -0.750000 0.000000 0.000000
									CHANNELS 3 Zrotation Yrotation Xrotation
									End Site
									{
										OFFSET 0.000000 0.000000 0.000000
									}
								}
							}
						}
					}
				}
			}
		}
	}
}
MOTION
Frames: 9
Frame Time: 0.016667
-0.561340 17.393680 -3.461930 0.292192 -25.832132 -1.431729 -14.882707 10.153033 5.043730 8.515050 -7.914875 -46.204213 -2.627535 10.920490 49.149297 0.390578 8.796097 1.520423 0.008510 0.093160 -0.278430 18.840663 -10.717129 3.311553 -28.190469 6.061097 -31.337847 10.914499 -15.252778 46.562918 -0.862602 -8.402858 1.264281 0.036900 0.605870 0.176300 -5.172743 2.823965 -8.705752 34.554061 -4.887767 40.709056 -17.361283 5.996834 11.079141 5.547720 4.286203 -12.337401 8.756169 -12.704896 23.714191 10.144770 -13.080560 -18.332630 5.111726 -7.326526 2.358488 -3.581311 1.723098 -6.769161 42.668548 -50.856839 -16.503784 -3.542800 2.895398 0.290090 0.158520 -0.013420 0.250060 -17.352235 9.687868 10.075817 10.091208 8.033262 -7.463674 -147.236271 45.816983 -133.230897 2.106605 -2.121252 -0.193470 0.445780 0.151700 0.246150 
-0.603720 17.349900 -3.483220 0.054431 -24.342908 -3.073810 -14.923549 10.269931 5.002113 9.249219 -7.992526 -45.327877 -2.815161 11.233018 50.183260 0.428565 9.033100 1.427409 0.057020 0.140550 -0.216040 18.795776 -10.631311 3.254408 -28.889619 5.577001 -29.310129 12.685122 -16.807613 47.621642 -1.013363 -8.893504 1.092236 0.059140 0.564470 0.197480 -5.008464 2.388748 -8.697922 33.173125 -4.548228 41.927771 -14.258221 5.545469 11.709677 4.795895 4.576153 -12.297332 9.219352 -12.471981 23.387049 9.225810 -11.853850 -19.339930 5.943297 -8.418356 2.496508 -2.760744 2.406921 -7.611525 46.870947 -53.248718 -19.678346 -3.472205 2.840501 0.311570 0.144630 0.024770 0.246100 -16.629816 10.393258 10.142842 11.846676 9.499637 -7.461346 -149.079332 45.588780 -137.847345 2.097509 -2.067644 -0.176360 0.428930 0.125350 0.225440 
-0.694430 17.271330 -3.513170 -0.315545 -23.083130 -4.859342 -15.044477 10.416438 5.010901 12.052351 -7.361583 -44.668409 -4.829700 12.830605 51.051760 0.550372 9.535212 1.234545 0.142630 0.225060 -0.094680 18.698057 -10.280478 3.260786 -29.975639 5.327831 -27.483125 15.313632 -19.357627 49.825782 -1.310152 -9.672029 0.853194 0.061340 0.453150 0.248760 -4.661732 1.479340 -8.804146 29.982516 -2.744760 43.770684 -8.713250 5.954400 11.350478 3.040570 5.556584 -12.549572 10.474518 -12.882749 24.485408 6.894880 -9.599250 -20.951870 5.871271 -11.857644 3.034950 1.760446 4.385968 -8.714202 52.912026 -55.123607 -23.606768 -3.334347 2.746051 0.376390 0.100680 0.140270 0.255630 -13.249542 12.986292 10.138175 14.450906 10.621412 -8.107841 -156.115365 50.097336 -156.648270 2.051151 -2.037484 -0.121530 0.366310 0.041740 0.192340 
-0.817310 17.173170 -3.525480 -0.957308 -23.013815 -6.074501 -15.178043 10.408493 5.150556 16.775230 -5.742998 -44.607065 -7.815525 15.277812 51.227329 0.671379 10.200615 0.956725 0.252480 0.339920 0.037190 18.610732 -9.930027 3.223776 -31.202431 5.317853 -25.523352 17.861388 -21.380291 50.738911 -1.537544 -10.194255 0.655766 0.099640 0.334700 0.298860 -4.365295 0.836759 -8.970024 26.432698 -0.068854 44.345917 -3.646288 7.360705 11.269203 1.303720 6.027992 -12.562904 10.993700 -12.094177 26.251517 4.678640 -6.682130 -21.848090 6.492547 -14.766753 2.847343 7.424329 3.431261 -9.633551 61.821595 -54.361923 -28.205729 -3.263210 2.701629 0.411220 0.053550 0.238890 0.247830 -10.451789 16.121355 10.101594 19.147599 13.808608 -9.162330 -161.305376 56.317517 -171.157121 2.018526 -2.010916 -0.055620 0.291230 -0.030780 0.159910 
-0.947220 17.096040 -3.551810 -1.125945 -22.380091 -7.551013 -15.264837 10.369678 5.278638 19.542536 -5.164127 -44.350542 -9.283680 16.760272 52.104466 0.750836 10.701695 0.745047 0.345790 0.457140 0.102420 18.558052 -9.753686 3.137447 -31.388007 5.016905 -24.115545 18.535402 -22.658068 52.474515 -1.710885 -10.638173 0.498019 0.162480 0.277490 0.342910 -4.163325 0.490294 -9.067440 22.411595 1.948054 44.903953 0.189855 8.118239 11.513064 -0.886101 6.148841 -12.403677 11.040727 -10.784579 27.599470 3.445010 -4.051710 -21.698240 8.378902 -17.636926 2.260080 14.265357 2.223791 -10.974073 69.781084 -51.653038 -31.644137 -3.299695 2.774865 0.413810 0.046710 0.291920 0.254090 -7.805557 19.462575 10.165087 25.681257 17.584666 -11.275638 -168.480867 64.592519 173.655391 1.927631 -1.956498 -0.005950 0.243970 -0.068090 0.149120 
-1.080260 17.018810 -3.544420 -1.033568 -21.346178 -8.248764 -15.320223 10.203197 5.427288 21.773017 -5.066654 -44.334648 -10.825693 18.243190 52.895219 0.846765 11.181847 0.569469 0.430790 0.596890 0.116260 18.550264 -9.629038 3.066632 -31.503678 4.267082 -23.341566 18.879231 -23.957969 54.132536 -1.869576 -11.059477 0.377970 0.243990 0.279400 0.386310 -4.081156 0.374526 -9.162488 18.226232 4.266265 42.727848 4.439678 8.500822 12.852573 -3.736871 6.086576 -11.744050 10.446196 -10.028908 29.639709 2.686330 -2.644450 -20.888180 10.854588 -20.127746 0.743046 20.666346 -3.551145 -12.345156 70.678839 -48.659902 -30.785613 -3.418512 2.921463 0.374710 0.076360 0.329710 0.296180 -4.213997 22.048459 10.344021 33.002882 20.687525 -13.844696 -178.334458 73.605733 160.396309 1.838706 -1.794351 0.047160 0.247900 -0.094810 0.179180 
-1.225310 16.945560 -3.522470 -1.190087 -20.399825 -7.947286 -15.472464 10.148638 5.691423 24.304872 -5.019741 -45.261765 -12.137226 19.614189 53.374229 0.902048 11.654739 0.423663 0.388370 0.552790 0.065660 18.463256 -9.340265 2.920233 -30.547673 3.501156 -23.341819 18.161950 -24.866095 56.214493 -1.965167 -11.397039 0.317877 0.221820 0.342390 0.410840 -3.726860 -0.270870 -9.297363 12.354741 6.970781 39.633838 9.634272 8.688797 13.746207 -6.979773 5.998485 -11.595576 9.293851 -9.734893 32.656288 2.407470 -1.960140 -19.327670 13.607848 -22.929136 -0.769534 24.926148 -9.651749 -13.993857 73.818076 -46.200071 -31.926622 -3.661570 2.978561 0.370440 0.130670 0.304490 0.287660 -0.151612 24.568064 11.178520 39.757507 21.085027 -18.281329 154.549553 81.270990 134.051004 1.822734 -1.058209 0.037740 0.279600 -0.028820 0.179020 
-1.361930 16.900020 -3.471180 -2.067425 -19.775463 -7.354942 -15.672628 10.357906 5.934562 27.150914 -4.866241 -45.588234 -13.190225 20.409381 52.849883 0.875931 11.874247 0.345908 0.333930 0.495070 0.033090 18.310107 -9.052491 2.628968 -28.088679 2.596492 -23.111049 15.950132 -24.908830 58.486204 -2.042826 -11.560305 0.321852 0.187010 0.390470 0.434430 -3.180734 -1.375644 -9.337481 5.961539 8.578020 35.492571 14.442461 7.623871 14.894926 -9.600364 6.124941 -11.606981 8.147158 -8.851456 36.686285 1.157030 -0.174770 -19.113300 15.513606 -25.678945 -2.551792 28.460094 -16.887824 -15.532296 78.906783 -43.685726 -33.987528 -3.954678 2.926181 0.409450 0.173530 0.312920 0.276830 3.302190 26.256746 12.980504 46.749814 22.994243 -16.454058 14.975593 89.052885 -4.168478 1.688614 -1.769577 0.008610 0.332230 0.036630 0.161440 
-1.492020 16.888170 -3.428650 -2.869989 -19.471129 -7.474579 -15.854195 10.657144 6.116802 30.119479 -4.538706 -44.794071 -14.668468 21.260074 51.737246 0.827761 12.017071 0.264883 0.302110 0.448490 0.055920 18.162156 -8.835488 2.288070 -25.391395 1.923033 -22.182830 13.504087 -24.349131 60.420073 -2.091780 -11.557105 0.332024 0.158360 0.380290 0.423990 -2.672789 -2.475042 -9.332537 -0.105338 9.299910 32.482133 17.488088 6.240566 15.506127 -11.832483 5.830672 -11.303521 5.995811 -7.306472 40.486966 1.702660 1.533630 -20.976080 17.882499 -27.971217 -4.072400 31.265830 -23.905904 -17.165264 83.717046 -41.940606 -35.687875 -4.189298 2.797627 0.484210 0.150580 0.334770 0.218080 5.452775 27.567774 13.915076 53.921136 23.520044 -17.740447 1.593487 80.510675 -13.142468 1.703126 -1.449096 -0.023530 0.376570 0.095650 0.117340 
